<!-- Generated by IcoMoon.io -->
<svg version="1.1" xmlns="http://www.w3.org/2000/svg" width="200" height="200" viewBox="0 0 200 200">
<title>mouse</title>
<path fill="#ccd6f6" d="M96.875 100c-13.806 0-25-11.194-25-25h-37.5v62.5c0 34.512 27.981 62.5 62.5 62.5s62.5-27.988 62.5-62.5v-62.5h-37.5c0 13.806-11.194 25-25 25zM71.875 50c0-13.806 11.194-25 25-25s25 11.194 25 25v12.5h37.5c0-34.519-27.981-62.5-62.5-62.5s-62.5 27.981-62.5 62.5h37.5v-12.5zM90.625 43.75v37.5c0 3.45 2.8 6.25 6.25 6.25s6.25-2.8 6.25-6.25v-37.5c0-3.45-2.8-6.25-6.25-6.25s-6.25 2.8-6.25 6.25z"></path>
</svg>
