<svg id="Group_52" data-name="Group 52" xmlns="http://www.w3.org/2000/svg" xmlns:xlink="http://www.w3.org/1999/xlink" width="97.884" height="112.339" viewBox="0 0 97.884 112.339">
  <defs>
    <clipPath id="clip-path">
      <rect id="Rectangle_13" data-name="Rectangle 13" width="97.884" height="112.339" fill="#af3ef6"/>
    </clipPath>
  </defs>
  <g id="Group_7" data-name="Group 7" clip-path="url(#clip-path)">
    <path id="Path_32" data-name="Path 32" d="M81.482,0c.794.273,1.614.486,2.378.829A9.7,9.7,0,0,1,88.682,13.3c-.148.368-.309.73-.536,1.267.449.026.808.055,1.169.066,4.743.138,8.152,3.49,8.526,8.391.028.364.04.73.04,1.1q0,27.694,0,55.388c0,4.393-2.128,7.76-5.789,8.973A11.832,11.832,0,0,1,88.46,89c-10.316.04-20.633.023-30.948.023H56.2c.411,1.81.795,3.5,1.178,5.185.37,1.634.756,3.265,1.1,4.905.125.595.372.848,1,.825,1.336-.05,2.675-.018,4.013-.014,4.363.013,6.94,2.671,7,7.217,0,.216,0,.433,0,.8,1.581,0,3.116,0,4.65,0,.7,0,1.411-.033,2.112.016a2.1,2.1,0,0,1,1.982,2.148,2.127,2.127,0,0,1-1.928,2.206,8.836,8.836,0,0,1-.95.017H21.536c-.282,0-.565.013-.845-.008a2.126,2.126,0,0,1-2.042-2.206,2.08,2.08,0,0,1,2.08-2.158c1.865-.044,3.732-.014,5.6-.016H27.3c.088-.964.1-1.875.266-2.752a6.229,6.229,0,0,1,5.552-5.187c1.75-.145,3.519-.035,5.276-.11a1.164,1.164,0,0,0,.9-.574c.821-3.358,1.576-6.733,2.393-10.3H40.383q-15.633,0-31.266,0A8.633,8.633,0,0,1,.253,82.125a11.537,11.537,0,0,1-.241-2.5q-.019-27.8-.006-55.608c0-4.718,2.616-8.267,6.774-9.192a12.212,12.212,0,0,1,2.625-.19q27.621-.015,55.243.01a1.83,1.83,0,0,0,1.794-.973c1.5-2.431,3.162-4.754,4.6-7.223C72.867,3.3,75.117.8,78.735,0ZM93.657,65.456V64.123q0-19.91,0-39.82a11.569,11.569,0,0,0-.043-1.2A4.287,4.287,0,0,0,89.4,19.027c-1.2-.039-2.4.047-3.591-.03a2,2,0,0,0-1.857.929Q75.169,31.1,66.323,42.219a2.758,2.758,0,0,0-.65,2.84,8.551,8.551,0,0,1,.268,2.056C66.3,52.91,62.473,57.8,56.965,58.382a50.263,50.263,0,0,1-6.006,0,9.673,9.673,0,0,0-7.211,2.5,2.023,2.023,0,0,1-3.474-1.109,36.13,36.13,0,0,1-1.3-12.241c.68-7.784,5.818-12.945,13.344-13.279a1.5,1.5,0,0,0,1.358-.783c2.875-4.509,5.781-9,8.675-13.493.167-.259.3-.541.53-.957H61.693q-26.252,0-52.5,0c-3.332,0-4.959,1.709-4.96,5.215q0,19.964,0,39.929v1.3c.545,0,.961,0,1.377,0,1.584.008,3.171-.041,4.752.047a2.094,2.094,0,0,1,2.024,2.224,2.116,2.116,0,0,1-2.137,2.106c-.456.025-.915.011-1.373.011H4.3c-.032.453-.073.771-.073,1.09,0,2.889-.012,5.777,0,8.666.014,3.223,1.741,5.031,4.853,5.031q39.88.01,79.759,0c3.049,0,4.79-1.816,4.81-4.966.017-2.779,0-5.558,0-8.337,0-1.483,0-1.484-1.411-1.484q-32.01,0-64.018,0a10.267,10.267,0,0,1-1.371-.047,2.162,2.162,0,0,1-.236-4.2,7.425,7.425,0,0,1,1.677-.133q31.9-.009,63.808-.005h1.552m-23.8-34.588,2.01-2.539q5.959-7.54,11.924-15.077a5.431,5.431,0,0,0,1.138-5.2,4.8,4.8,0,0,0-4.114-3.6,4.741,4.741,0,0,0-4.887,2.359Q69.87,16.176,63.836,25.561a4.3,4.3,0,0,0-.231.49l6.252,4.817m-26.182,24.7a17.223,17.223,0,0,1,9.284-1.489,23.594,23.594,0,0,0,2.846.05c2.979-.174,5.164-1.825,5.684-4.591a15,15,0,0,0-.108-4.209,2.212,2.212,0,0,0-.826-1.292c-2.118-1.692-4.274-3.33-6.43-4.969a2,2,0,0,0-.925-.437A9.153,9.153,0,0,0,43.7,45.232c-.974,3.381-.68,6.78-.03,10.332m-12,52.314H66.2c.232-2.723-.487-3.563-3-3.563q-14.248,0-28.5,0c-2.531,0-3.213.786-3.028,3.563m11.892-8.026H54.321L51.853,89.088H46.027l-2.46,10.763M62.575,40.087l4.6-5.819-5.978-4.6-4.034,6.252,5.413,4.169" transform="translate(0 -0.001)" fill="#af3ef6"/>
    <path id="Path_33" data-name="Path 33" d="M60.965,227.76a2.125,2.125,0,0,1-2.07-2.173,2.108,2.108,0,1,1,4.21.08,2.11,2.11,0,0,1-2.14,2.093" transform="translate(-42.27 -157.932)" fill="#af3ef6"/>
  </g>
</svg>
