<svg id="Group_51" data-name="Group 51" xmlns="http://www.w3.org/2000/svg" xmlns:xlink="http://www.w3.org/1999/xlink" width="103.848" height="99.055" viewBox="0 0 103.848 99.055">
  <defs>
    <clipPath id="clip-path">
      <rect id="Rectangle_27" data-name="Rectangle 27" width="103.848" height="99.055" fill="#af3ef6"/>
    </clipPath>
  </defs>
  <g id="Group_11" data-name="Group 11" clip-path="url(#clip-path)">
    <path id="Path_37" data-name="Path 37" d="M0,9.586C.323,8.494.573,7.372.984,6.314A9.83,9.83,0,0,1,10.356.019Q48.129.129,85.9,0A10.422,10.422,0,0,1,96.337,9.644c.083.839.108,1.687.108,2.531q.01,20.741.03,41.481a2.341,2.341,0,0,0,.587,1.589,4.779,4.779,0,0,1,.119,7.317.865.865,0,0,0-.147.228c.43,1.051.813,2.1,1.295,3.095a1.242,1.242,0,0,0,.853.592c3.018.284,4.649,2.02,4.659,5.033,0,1.082.017,2.164,0,3.245a4.535,4.535,0,0,1-4.467,4.576c-.7.018-1.068.206-1.191.887a2.094,2.094,0,0,1-.241.664c-.741,1.282-.972,2.335.212,3.7,1.258,1.448.877,3.766-.441,5.231a42.248,42.248,0,0,1-3,3.017,4.444,4.444,0,0,1-6.155-.064A1.069,1.069,0,0,0,87,92.557a.337.337,0,0,1-.093.039c-1.68.5-2.9,1.168-3.095,3.326-.163,1.838-2.194,3.059-4.127,3.111-1.25.033-2.5.023-3.752.006a4.475,4.475,0,0,1-4.6-4.315c-.053-.872-.4-1.15-1.139-1.459-1.509-.63-2.738-1.291-4.354.173C64.5,94.65,62.2,94.15,60.8,92.871c-1.049-.954-2.066-1.952-3.015-3.005a4.425,4.425,0,0,1,.074-6.153,1.082,1.082,0,0,0,.2-1.557,7.937,7.937,0,0,1-.569-1.3c-.6-1.5-.594-1.5-2.257-1.5q-7.605,0-15.211,0a2.075,2.075,0,0,1-2.3-1.69,2.013,2.013,0,0,1,2.2-2.376c3.481-.015,6.963-.005,10.445-.005h1.214c0-1.305-.006-2.511,0-3.717.018-3.088,1.638-4.808,4.715-5.091a1.239,1.239,0,0,0,.843-.61c.462-.971.824-1.99,1.248-3.05-.213-.235-.469-.5-.706-.779a4.526,4.526,0,0,1,.1-6.1C58.651,55,59.57,54.1,60.5,53.207a4.482,4.482,0,0,1,6.383-.092c.518.479.914.592,1.478.185A1.887,1.887,0,0,1,69,53.007a2.748,2.748,0,0,0,2.453-2.792,3.938,3.938,0,0,1,3.72-3.327,34.849,34.849,0,0,1,4.354-.067,4.456,4.456,0,0,1,4.519,4.405,1.112,1.112,0,0,0,.907,1.2c.8.24,1.546.675,2.342.945a1.1,1.1,0,0,0,.937-.105,5.037,5.037,0,0,1,4.029-1.475V31.255H4.077v1.109c0,11.8-.022,23.6.031,35.4A10.675,10.675,0,0,0,4.831,71.6a5.449,5.449,0,0,0,5.581,3.7c3.582-.07,7.166-.02,10.749-.015,1.553,0,2.479.781,2.464,2.049s-.948,2.021-2.509,2.023c-3.481,0-6.969-.128-10.443.03C4.46,79.669.953,74.912.195,70.493A5.746,5.746,0,0,0,0,69.832V9.586M4.13,27H92.339c0-.9,0-1.738,0-2.575-.009-4.631.064-9.265-.052-13.894-.1-4.028-2.682-6.41-6.658-6.41H75.691q-32.7,0-65.407-.014A5.415,5.415,0,0,0,5.7,6.249a8.086,8.086,0,0,0-1.626,5.117q0,7.353,0,14.706c0,.3.031.591.051.931M94.786,86.781c-.172-.221-.3-.416-.458-.581-.374-.391-.766-.763-1.143-1.151-.99-1.017-1.015-1.718-.39-3.005A38.936,38.936,0,0,0,94.721,77.5c.622-1.848.979-2.211,2.935-2.211,2.354,0,2.1.175,2.108-2.138,0-2.468,0-2.468-2.484-2.54-1.428-.041-1.954-.552-2.442-1.951a41.028,41.028,0,0,0-1.921-4.661c-.782-1.58-.782-2.179.44-3.413,1.586-1.6,1.586-1.6.005-3.185-1.693-1.693-1.693-1.693-3.4-.035-1.113,1.081-1.8,1.1-3.169.446a45.719,45.719,0,0,0-4.842-1.995c-1.465-.505-1.958-1.031-1.977-2.632-.027-2.264-.027-2.264-2.246-2.264-2.418,0-2.418,0-2.443,2.384-.016,1.541-.49,2.045-1.936,2.541a36.91,36.91,0,0,0-4.565,1.884c-1.619.812-2.21.81-3.493-.45-1.78-1.749-1.331-1.746-3.128.033-1.709,1.692-1.7,1.7-.052,3.4,1.131,1.163,1.145,1.781.438,3.253a42.827,42.827,0,0,0-1.913,4.66c-.5,1.461-1.045,1.967-2.63,1.988-2.317.031-2.326.031-2.314,2.3.015,2.743-.308,2.353,2.359,2.38,1.6.017,2.093.475,2.6,1.988a34.521,34.521,0,0,0,1.833,4.477c.838,1.672.83,2.255-.481,3.568-1.759,1.763-1.695,1.3.017,3.035,1.734,1.76,1.744,1.75,3.537.022a2.188,2.188,0,0,1,3.008-.409A38.2,38.2,0,0,0,73.107,89.9c1.9.632,2.272,1,2.278,3.01.008,2.3-.216,2.054,2.064,2.06,2.583.007,2.583,0,2.624-2.536,0-.1,0-.2,0-.3a2.079,2.079,0,0,1,1.536-2.018c1.847-.718,3.686-1.459,5.493-2.271a2.131,2.131,0,0,1,2.6.37q.7.664,1.365,1.359c.369.384.708.459,1.113.038.726-.755,1.481-1.481,2.211-2.233a3.973,3.973,0,0,0,.394-.591" transform="translate(0 0)" fill="#af3ef6"/>
    <path id="Path_38" data-name="Path 38" d="M154.076,172.2c-1.546-1.741-3.043-3.426-4.538-5.113a6.787,6.787,0,0,1-.584-.7,2.029,2.029,0,0,1,.323-2.664,1.922,1.922,0,0,1,2.667,0c2.085,2.251,4.137,4.536,6.121,6.877a2.53,2.53,0,0,1-.114,3.365c-1.892,2.2-3.826,4.362-5.779,6.506a2.032,2.032,0,1,1-3.028-2.71c1.229-1.435,2.507-2.827,3.763-4.238.376-.423.748-.849,1.169-1.328" transform="translate(-108.336 -118.982)" fill="#af3ef6"/>
    <path id="Path_39" data-name="Path 39" d="M47.094,172.241c1.584,1.78,3.094,3.465,4.588,5.164a4.219,4.219,0,0,1,.747,1.071,1.984,1.984,0,0,1-.691,2.351,1.926,1.926,0,0,1-2.517-.117c-2.1-2.286-4.185-4.6-6.185-6.975a2.512,2.512,0,0,1,.189-3.283q2.852-3.3,5.795-6.514a1.991,1.991,0,0,1,2.9-.147A2.047,2.047,0,0,1,52,166.708c-1.257,1.459-2.558,2.88-3.839,4.319-.334.375-.662.756-1.064,1.215" transform="translate(-30.994 -119.013)" fill="#af3ef6"/>
    <path id="Path_40" data-name="Path 40" d="M107.278,159.9c-.414,1.763-.872,3.735-1.341,5.7q-1.3,5.466-2.615,10.93c-.047.2-.1.393-.165.585a2.04,2.04,0,0,1-2.439,1.45,1.985,1.985,0,0,1-1.485-2.41c.521-2.373,1.106-4.732,1.667-7.1q1.133-4.778,2.271-9.555c.3-1.268,1.082-1.972,2.115-1.952a2.109,2.109,0,0,1,1.991,2.344" transform="translate(-72.312 -114.871)" fill="#af3ef6"/>
    <path id="Path_41" data-name="Path 41" d="M107.757,277.914a2,2,0,0,1,2.037,2.057,2.037,2.037,0,0,1-2,2.008,2.1,2.1,0,0,1-2.107-2.027,2.045,2.045,0,0,1,2.073-2.038" transform="translate(-77.053 -202.625)" fill="#af3ef6"/>
    <path id="Path_42" data-name="Path 42" d="M215.121,46.237c-3.075,0-6.151.05-9.224-.013a6.843,6.843,0,0,1-1.68-13.446,7.432,7.432,0,0,1,1.9-.267c5.981-.02,11.962-.047,17.942,0A6.865,6.865,0,0,1,229.39,43.8a6.652,6.652,0,0,1-5.348,2.444c-2.973.017-5.947,0-8.921,0Zm-.05-9.628c-2.973,0-5.946-.03-8.918.011a2.765,2.765,0,1,0,.014,5.523c5.945.031,11.891.019,17.836.008a2.77,2.77,0,1,0-.015-5.532c-2.972-.048-5.945-.012-8.918-.01" transform="translate(-145.204 -23.685)" fill="#af3ef6"/>
    <path id="Path_43" data-name="Path 43" d="M124.069,39.412a6.858,6.858,0,1,1-6.811-6.861,6.877,6.877,0,0,1,6.811,6.861m-4.08.046a2.781,2.781,0,0,0-2.76-2.789,2.733,2.733,0,0,0-2.755,2.67,2.762,2.762,0,0,0,2.686,2.853,2.816,2.816,0,0,0,2.829-2.734" transform="translate(-80.458 -23.733)" fill="#af3ef6"/>
    <path id="Path_44" data-name="Path 44" d="M58.488,39.436a6.841,6.841,0,1,1-6.876-6.888,6.849,6.849,0,0,1,6.876,6.888m-6.871-2.771a2.758,2.758,0,0,0-2.727,2.809,2.751,2.751,0,0,0,5.5-.054,2.742,2.742,0,0,0-2.775-2.755" transform="translate(-32.668 -23.731)" fill="#af3ef6"/>
    <path id="Path_45" data-name="Path 45" d="M253.262,223.148a12.487,12.487,0,1,1-12.471,12.508,12.521,12.521,0,0,1,12.471-12.508m-8.372,12.438a8.4,8.4,0,1,0,8.392-8.349,8.4,8.4,0,0,0-8.392,8.349" transform="translate(-175.56 -162.696)" fill="#af3ef6"/>
  </g>
</svg>
