<svg xmlns="http://www.w3.org/2000/svg" width="97.165" height="92.796" viewBox="0 0 97.165 92.796">
  <g id="Group_96" data-name="Group 96" transform="translate(-422.747 -176.995)">
    <path id="Path_103" data-name="Path 103" d="M519.912,247.92a4.594,4.594,0,0,1-4.658,3.439c-.166,0-.388.249-.49.435-.165.3-.211.67-.38.969-.682,1.206-.91,2.189.2,3.468,1.177,1.356.823,3.532-.411,4.9a35.885,35.885,0,0,1-2.883,2.888c-1.815,1.6-4.088,1.353-6.3-.637-1.056.418-2.143.822-3.2,1.293-.169.075-.274.45-.289.693a4.337,4.337,0,0,1-4.665,4.415c-.98,0-1.961.008-2.941,0a4.223,4.223,0,0,1-4.421-4.136c-.044-.726-.252-1.123-.969-1.218a.532.532,0,0,1-.175-.071c-1.355-.743-2.509-1.12-3.973.172-1.272,1.123-3.4.671-4.719-.526-.982-.893-1.933-1.83-2.822-2.816a4.157,4.157,0,0,1,.06-5.768,1.019,1.019,0,0,0,.2-1.458,4.426,4.426,0,0,1-.588-1.393c-.208-1.014-.746-1.276-1.768-1.263-4.838.063-9.677.033-14.516.025a1.921,1.921,0,0,1-2.177-1.765,1.862,1.862,0,0,1,2.061-2.047c3.289-.013,6.578,0,9.867-.005h1.051c0-1.216-.005-2.345,0-3.474.016-2.9,1.534-4.525,4.4-4.782.287-.026.572-.334.808-.561.122-.117.118-.356.2-.524.672-1.33,1.088-2.465-.174-3.9-1.153-1.311-.725-3.479.494-4.811.9-.98,1.837-1.926,2.817-2.822a4.159,4.159,0,0,1,5.761.085,1.009,1.009,0,0,0,1.386.2c.831-.442,1.732-.751,2.588-1.111a12.177,12.177,0,0,1,.274-1.881,3.937,3.937,0,0,1,3.507-3.029,27.1,27.1,0,0,1,4.356-.044,4.069,4.069,0,0,1,3.932,3.9c.061.829.318,1.284,1.132,1.412a1.256,1.256,0,0,1,.441.167c1.2.728,2.255.978,3.461-.211.567-.559,1.679-.561,2.673-.854V206.253h-82.46c-.016.337-.044.672-.044,1.006q0,16.636-.005,33.271a7.963,7.963,0,0,0,1.3,4.679,4.935,4.935,0,0,0,4.316,2.313c3.542-.023,7.084-.014,10.626,0a1.88,1.88,0,0,1,2.047,1.791,1.794,1.794,0,0,1-1.649,1.979c-4.2.029-8.428.223-12.6-.132-3.934-.334-6.993-3.884-7.65-8.1a15.474,15.474,0,0,1-.189-2.363q-.016-26.522-.007-53.044a10.81,10.81,0,0,1,3.818-8.741A7.919,7.919,0,0,1,431.8,177q36.053,0,72.106.005c4.2,0,7.81,3.177,8.759,7.694a17.18,17.18,0,0,1,.319,3.49c.022,13.023.009,26.047.032,39.07a2.172,2.172,0,0,0,.429,1.357c2.387,2.623,2.44,4.45.1,7.163.412,1.036.817,2.09,1.259,3.128a.659.659,0,0,0,.472.353c2.382-.041,3.79,1.249,4.634,3.338Zm-10.763-45.641c0-1.46,0-2.818,0-4.177-.01-3.8.064-7.608-.058-11.407-.117-3.664-2.541-5.882-6.158-5.882H477.124q-22.393,0-44.786-.011a4.989,4.989,0,0,0-4.031,1.735,7.408,7.408,0,0,0-1.741,5q-.013,6.988,0,13.975c0,.243.04.487.065.765ZM482.455,229.4c-.129.035-.245.032-.307.088-.4.361-.788.728-1.167,1.107-1.653,1.648-1.651,1.65-.053,3.319.97,1.013,1,1.629.393,2.9a40.07,40.07,0,0,0-1.816,4.359c-.5,1.5-.972,1.947-2.574,1.959-2.076.016-2.085.016-2.073,2.148.014,2.574-.289,2.209,2.2,2.235,1.5.015,1.961.444,2.435,1.861a32.364,32.364,0,0,0,1.715,4.2c.784,1.568.777,2.117-.447,3.346-1.648,1.655-1.588,1.219.012,2.845,1.625,1.652,1.634,1.643,3.31.025a2.046,2.046,0,0,1,2.814-.387,35.781,35.781,0,0,0,4.251,1.814c1.777.593,2.128.941,2.135,2.819.008,2.16-.2,1.929,1.928,1.934,2.42.006,2.42,0,2.458-2.374.021-1.338.453-1.808,1.713-2.252a38.139,38.139,0,0,0,4.367-1.782c1.579-.788,2.061-.789,3.337.467,1.652,1.626,1.2,1.6,2.844-.03s1.639-1.64.01-3.324a2.049,2.049,0,0,1-.368-2.817,36.617,36.617,0,0,0,1.8-4.263c.582-1.735.916-2.076,2.744-2.076,2.2,0,1.972.166,1.975-2,0-2.318,0-2.318-2.322-2.384-1.338-.038-1.829-.517-2.288-1.825a41.193,41.193,0,0,0-1.839-4.454c-.683-1.4-.671-1.979.451-3.116,1.486-1.505,1.486-1.505.009-2.986-1.587-1.59-1.587-1.59-3.182-.037-1.062,1.034-1.681,1.033-3.044.37a39.16,39.16,0,0,0-4.451-1.82c-1.375-.47-1.835-.965-1.853-2.464-.026-2.125-.026-2.125-2.1-2.125-2.266,0-2.266,0-2.289,2.232-.015,1.447-.455,1.929-1.809,2.383a29.492,29.492,0,0,0-4.024,1.624c-1.907.972-2.251.983-3.783-.545-.224-.224-.44-.456-.675-.667A3.71,3.71,0,0,0,482.455,229.4Z" transform="translate(0 0)" fill="#ac3df7"/>
    <path id="Path_104" data-name="Path 104" d="M576.485,348.772c-1.534-1.73-2.984-3.357-4.423-4.992a1.932,1.932,0,1,1,2.823-2.571q2.535,2.819,5.038,5.668a2.612,2.612,0,0,1,.021,3.76c-1.68,1.931-3.385,3.84-5.1,5.743a1.93,1.93,0,1,1-2.812-2.595C573.495,352.129,574.965,350.484,576.485,348.772Z" transform="translate(-110.935 -121.937)" fill="#ac3df7"/>
    <path id="Path_105" data-name="Path 105" d="M469.629,348.753c1.469,1.654,2.884,3.229,4.274,4.825a3.434,3.434,0,0,1,.756,1.179,1.775,1.775,0,0,1-.812,2.137,1.885,1.885,0,0,1-2.416-.362c-1.182-1.277-2.323-2.593-3.48-3.894-.631-.71-1.279-1.405-1.882-2.138a2.541,2.541,0,0,1-.018-3.469q2.638-3.054,5.361-6.033a1.875,1.875,0,0,1,2.713-.182,1.909,1.909,0,0,1,.115,2.73C472.752,345.269,471.224,346.956,469.629,348.753Z" transform="translate(-31.821 -121.917)" fill="#ac3df7"/>
    <path id="Path_106" data-name="Path 106" d="M529.54,336.4c-.474,2.02-.9,3.837-1.327,5.652-.819,3.447-1.617,6.9-2.492,10.332a3.407,3.407,0,0,1-1,1.631,1.587,1.587,0,0,1-2.029-.042,1.788,1.788,0,0,1-.772-1.991q1-4.3,2.023-8.591c.561-2.37,1.11-4.744,1.7-7.107.405-1.628,2.067-2.268,3.164-1.2A4.848,4.848,0,0,1,529.54,336.4Z" transform="translate(-73.987 -117.617)" fill="#ac3df7"/>
    <path id="Path_107" data-name="Path 107" d="M530.381,455.171a1.875,1.875,0,0,1,1.879,1.954,1.911,1.911,0,0,1-1.9,1.857,1.962,1.962,0,0,1-1.946-1.927A1.917,1.917,0,0,1,530.381,455.171Z" transform="translate(-78.878 -207.651)" fill="#ac3df7"/>
    <path id="Path_108" data-name="Path 108" d="M636.825,222.224c-2.877,0-5.755.042-8.631-.012a6.421,6.421,0,0,1-4-11.3,6.249,6.249,0,0,1,4.176-1.556c5.628-.02,11.256-.045,16.883,0a6.437,6.437,0,1,1-.082,12.873h-8.347Zm.086-9.024c-2.813,0-5.627-.027-8.439.011a2.592,2.592,0,1,0,.006,5.178c5.563.029,11.126.018,16.689.007a2.6,2.6,0,1,0-.006-5.186C642.411,213.165,639.66,213.2,636.91,213.2Z" transform="translate(-148.689 -24.138)" fill="#ac3df7"/>
    <path id="Path_109" data-name="Path 109" d="M545.917,215.82a6.417,6.417,0,1,1-6.395-6.409A6.439,6.439,0,0,1,545.917,215.82Zm-3.817.061a2.6,2.6,0,0,0-2.587-2.61,2.559,2.559,0,0,0-2.573,2.507,2.588,2.588,0,0,0,2.518,2.671A2.638,2.638,0,0,0,542.1,215.88Z" transform="translate(-82.362 -24.198)" fill="#ac3df7"/>
    <path id="Path_110" data-name="Path 110" d="M480.35,215.83a6.4,6.4,0,1,1-6.374-6.421A6.414,6.414,0,0,1,480.35,215.83Zm-3.832-.027a2.574,2.574,0,0,0-5.148.049,2.575,2.575,0,1,0,5.148-.049Z" transform="translate(-33.444 -24.196)" fill="#ac3df7"/>
    <path id="Path_111" data-name="Path 111" d="M663.5,412.018a11.691,11.691,0,1,1,11.714,11.709A11.675,11.675,0,0,1,663.5,412.018Zm3.835-.008a7.856,7.856,0,1,0,7.819-7.86A7.873,7.873,0,0,0,667.338,412.01Z" transform="translate(-179.718 -166.704)" fill="#ac3df7"/>
  </g>
</svg>
