<svg xmlns="http://www.w3.org/2000/svg" width="83.086" height="92" viewBox="0 0 83.086 92">
  <g id="Group_95" data-name="Group 95" transform="translate(-440.964 -168)">
    <path id="Path_101" data-name="Path 101" d="M507.8,168h2.332a2.6,2.6,0,0,0,.405.161,7.735,7.735,0,0,1,6.239,8.471,22.97,22.97,0,0,1-.817,3.283,19.118,19.118,0,0,1,2.329.222c3.561.761,5.759,3.671,5.761,7.609q.011,22.678-.005,45.355a9.63,9.63,0,0,1-.2,2.138c-.8,3.489-3.679,5.659-7.507,5.665q-13.267.019-26.534,0h-1.138c.7,2.927,1.35,5.719,2.053,8.5.048.192.469.4.722.412,1.4.046,2.812-.031,4.211.052a5.3,5.3,0,0,1,5.058,4.52,19.933,19.933,0,0,1,.151,2.018c1.822,0,3.608.005,5.394,0a1.79,1.79,0,0,1,1.882,1.225c.339.958-.068,1.7-1.231,2.37H458.116c-1.144-.654-1.512-1.321-1.26-2.284.229-.879.936-1.3,2.179-1.309.657,0,1.315,0,1.972,0h3.212c0-.319,0-.5,0-.677.04-3.7,2.245-5.883,5.956-5.893,1.076,0,2.154-.046,3.226.016.69.04.914-.24,1.053-.87.522-2.363,1.1-4.714,1.657-7.071.071-.3.12-.613.2-1h-1.175q-13.222,0-26.445-.005c-4.639-.009-7.71-3.075-7.714-7.71q-.019-22.767.012-45.535a9.2,9.2,0,0,1,.4-2.733c.993-3.129,3.723-4.943,7.307-4.944q23.621-.005,47.242.012a1.43,1.43,0,0,0,1.378-.727c1.648-2.531,3.35-5.026,5.017-7.544a7.9,7.9,0,0,1,5.164-3.566A1.293,1.293,0,0,0,507.8,168Zm12.666,53.607v-1.138q0-16.261,0-32.521a9.362,9.362,0,0,0-.043-1.076,3.568,3.568,0,0,0-3.529-3.286c-1.045-.037-2.095.034-3.137-.028a1.64,1.64,0,0,0-1.5.727q-7.309,8.979-14.673,17.913c-.77.93-1.347,1.759-.79,3.014a4.218,4.218,0,0,1,.158,1.421,8.516,8.516,0,0,1-7.67,9.188,37.637,37.637,0,0,1-4.829-.006,8.585,8.585,0,0,0-6.381,2.072,1.723,1.723,0,0,1-2.9-.894,28.742,28.742,0,0,1-1.115-10.113c.573-6.307,4.954-10.557,11.281-10.826a1.348,1.348,0,0,0,1.224-.682c2.42-3.67,4.871-7.32,7.312-10.977.144-.216.277-.439.516-.82H448.808c-2.848,0-4.252,1.392-4.253,4.227q0,16.4,0,32.791c0,.316.031.631.051,1.017,1.678,0,3.259-.022,4.839.007a1.84,1.84,0,0,1,2.03,1.808c0,1.064-.786,1.758-2.041,1.772-1.345.016-2.691.039-4.035-.01-.675-.024-.871.194-.861.864.037,2.365.008,4.731.016,7.1.009,2.7,1.466,4.164,4.166,4.165q33.8.006,67.61,0c2.644,0,4.113-1.477,4.126-4.114.012-2.366,0-4.732,0-7.1,0-.284-.04-.568-.065-.9H464.967a10.07,10.07,0,0,1-1.164-.032,1.758,1.758,0,0,1-.2-3.459,6.479,6.479,0,0,1,1.335-.1q27.125-.006,54.25,0Zm-20.208-28.331c.355-.428.658-.789.957-1.154q5.428-6.626,10.86-13.249a4.357,4.357,0,0,0,.99-4.255,4.028,4.028,0,0,0-3.475-2.971,4.115,4.115,0,0,0-4.213,1.98q-5.109,7.64-10.209,15.286a4.349,4.349,0,0,0-.215.418ZM478.037,213.5a15,15,0,0,1,7.793-1.226,22.08,22.08,0,0,0,2.505.046c2.528-.141,4.383-1.5,4.822-3.762a11.881,11.881,0,0,0-.094-3.447,1.808,1.808,0,0,0-.7-1.057c-1.8-1.385-3.628-2.727-5.458-4.069a1.719,1.719,0,0,0-.786-.357,7.759,7.759,0,0,0-8.056,5.414A17.542,17.542,0,0,0,478.037,213.5Zm19.128,42.867c.153-2.3-.426-2.941-2.574-2.941q-12.183,0-24.367,0c-1.981,0-2.73.962-2.292,2.94Zm-10.088-6.587-2.1-8.832h-4.942l-2.089,8.832Zm5.83-57.492-3.422,5.128,4.595,3.409,3.9-4.762Z" transform="translate(0 0)" fill="#b03ff7"/>
    <path id="Path_102" data-name="Path 102" d="M501.636,395.409a1.769,1.769,0,0,1-1.769-1.768,1.787,1.787,0,1,1,3.574.042A1.761,1.761,0,0,1,501.636,395.409Z" transform="translate(-44.791 -170.222)" fill="#b03ff7"/>
  </g>
</svg>
