<svg xmlns="http://www.w3.org/2000/svg" width="84.077" height="95.501" viewBox="0 0 84.077 95.501">
  <g id="Group_53" data-name="Group 53" transform="translate(-34.06 -27.266)">
    <path id="Path_79" data-name="Path 79" d="M46.523,122.767c-.558-.16-1.121-.306-1.673-.482a10.371,10.371,0,0,1-7.285-10.168Q37.55,90.8,37.542,69.478a12.188,12.188,0,0,0-.447-3.1c-.809-3-1.716-5.967-2.565-8.952a10.341,10.341,0,0,1,7.328-13.248q22.494-6.544,45-13.044c4.116-1.192,8.2-2.5,12.36-3.521a10.25,10.25,0,0,1,12.639,7.312c1.041,3.415,2,6.854,2.989,10.285.5,1.745.06,2.534-1.713,3.049Q100.519,51.913,87.9,55.561,70.991,60.456,54.08,65.347a2.022,2.022,0,0,0-.864.458h.934q30.516,0,61.031,0a11.625,11.625,0,0,1,1.211.031,1.7,1.7,0,0,1,1.649,1.5,6.338,6.338,0,0,1,.092,1.111q.006,21.693,0,43.386c0,4.64-2.03,8.054-6.262,10.046a21.2,21.2,0,0,1-2.818.89H84.788c-.175-.121-.352-.241-.525-.365a1.825,1.825,0,0,1,.681-3.292,5.432,5.432,0,0,1,1.112-.073q10.452,0,20.9,0c4.7,0,7.438-2.715,7.441-7.389q.009-11.8,0-23.605c0-.332-.029-.664-.045-1.005H41.3v.9q0,11.989,0,23.977c0,4.32,2.809,7.111,7.134,7.12,3.453.007,6.905,0,10.358,0,3.733,0,7.465-.006,11.2,0,1.3,0,2.1.6,2.211,1.668a1.987,1.987,0,0,1-1.41,2.061Zm43.4-88.673c.233.253.329.372.439.477q6.349,6.1,12.716,12.186a1.279,1.279,0,0,0,1.039.2c2.035-.55,4.055-1.159,6.077-1.753.225-.066.441-.166.725-.274-.984-3.3-1.85-6.57-2.944-9.76a6.307,6.307,0,0,0-7.048-4.122C97.276,31.9,93.7,33.035,89.919,34.094ZM57.047,60.606c-.052-.134-.059-.207-.1-.245Q50.432,54.088,43.9,47.828a.79.79,0,0,0-.554-.21c-3.335.356-6.211,4.23-5.476,7.566.554,2.51,1.349,4.967,2.043,7.445.248.885.514,1.765.79,2.707Zm57.3,8.933c-2.569,0-5.081.021-7.592-.015a1.288,1.288,0,0,0-1.311.761c-2.3,4.049-4.647,8.074-6.976,12.108-.135.233-.253.475-.413.779h16.292Zm-72.991.045V83.234c2.6,0,5.142-.019,7.683.015a1.152,1.152,0,0,0,1.158-.689c2.325-4.068,4.677-8.122,7.017-12.182.132-.229.235-.474.392-.795ZM76.014,38.164l-.142.281a6.707,6.707,0,0,1,.83.588Q81.856,43.961,87,48.9c.8.771,1.533,1.924,2.479,2.155s2.129-.457,3.2-.766c2.16-.621,4.316-1.259,6.565-1.916-.178-.218-.262-.342-.367-.444q-6.353-6.1-12.728-12.183a1.286,1.286,0,0,0-1.049-.206c-2.423.663-4.831,1.384-7.243,2.086Zm9.372,14.223c-.433-.35-.711-.543-.953-.774-3.794-3.634-7.626-7.231-11.347-10.939a2.689,2.689,0,0,0-3.213-.786c-2.594.893-5.262,1.571-7.987,2.363a5.406,5.406,0,0,0,.353.432q6.352,6.111,12.727,12.2a1.3,1.3,0,0,0,1.05.2c1.978-.529,3.939-1.122,5.907-1.693C82.986,53.081,84.051,52.774,85.386,52.387ZM71.131,56.514a2.213,2.213,0,0,0-.208-.305q-6.456-6.2-12.932-12.384a1.184,1.184,0,0,0-.965-.156c-2.6.719-5.192,1.48-7.785,2.234-.451.131-.9.286-1.578.506.4.318.665.489.888.7Q53.6,51.95,58.644,56.8c.873.838,1.645,2.125,2.665,2.371,1.059.254,2.367-.485,3.556-.824C66.945,57.752,69.018,57.133,71.131,56.514ZM86.916,69.539c-3.377,0-6.573-.017-9.77.028a1.31,1.31,0,0,0-.871.63c-2.4,4.1-4.765,8.209-7.134,12.322a7.563,7.563,0,0,0-.312.715c3.16,0,6.2-.022,9.241.017a1.42,1.42,0,0,0,1.461-.824c2.246-3.967,4.544-7.906,6.823-11.855C86.521,70.283,86.673,69.987,86.916,69.539Zm-3.457,13.6a1.73,1.73,0,0,0,.336.087c3.111.006,6.222.028,9.332-.021a1.409,1.409,0,0,0,.936-.678c2.37-4.048,4.705-8.117,7.046-12.183.129-.224.229-.464.4-.8-3.223,0-6.3.019-9.375-.016a1.3,1.3,0,0,0-1.312.756C88.525,74.3,86.2,78.3,83.884,82.312,83.735,82.569,83.61,82.841,83.458,83.137Zm-29.324.1c3.376,0,6.574.017,9.772-.028a1.31,1.31,0,0,0,.872-.631c2.4-4.1,4.763-8.215,7.132-12.329.112-.194.185-.411.315-.706-3.2,0-6.271.017-9.343-.014a1.294,1.294,0,0,0-1.315.753c-2.3,4.046-4.646,8.067-6.974,12.1C54.458,82.608,54.338,82.852,54.135,83.233Z" transform="translate(0)" fill="#af3ef6"/>
    <path id="Path_80" data-name="Path 80" d="M86.206,142.216c-.175-.121-.352-.238-.524-.365a1.833,1.833,0,0,1,1.037-3.338,1.834,1.834,0,0,1,.979,3.381c-.176.122-.371.215-.559.322Z" transform="translate(-8.885 -19.448)" fill="#af3ef6"/>
    <path id="Path_81" data-name="Path 81" d="M78.351,116.37c0-2.985-.007-5.971,0-8.956.006-2.038,1.409-2.858,3.177-1.843q7.84,4.5,15.665,9.035c1.752,1.015,1.734,2.646-.036,3.67q-7.784,4.508-15.583,8.991c-1.832,1.054-3.218.255-3.223-1.848C78.345,122.4,78.351,119.387,78.351,116.37Zm3.77,6.271,10.769-6.205-10.769-6.213Z" transform="translate(-7.743 -13.613)" fill="#af3ef6"/>
  </g>
</svg>
