<svg xmlns="http://www.w3.org/2000/svg" width="100.961" height="92.575" viewBox="0 0 100.961 92.575">
  <g id="Group_97" data-name="Group 97" transform="translate(-422.677 -184.243)">
    <path id="Path_112" data-name="Path 112" d="M523.638,255.024a1.7,1.7,0,0,0-.183.329,6.485,6.485,0,0,1-6.693,5.011q-17.351.011-34.7,0h-1.237v6.522c.655,0,1.327,0,2,0a6.536,6.536,0,0,1,6.666,6.5c.092,3.018-.017,3.45-3.3,3.428-9.036-.061-18.074-.021-27.11-.022-1.812,0-2.31-.454-2.243-2.276a12.44,12.44,0,0,1,.45-3.395,6.33,6.33,0,0,1,5.865-4.23c.75-.022,1.5,0,2.332,0v-6.525H464.3q-17.2,0-34.406,0c-4.582,0-7.215-2.64-7.215-7.226q0-31.021,0-62.043a6.5,6.5,0,0,1,5.116-6.7,9.086,9.086,0,0,1,1.958-.145q43.426-.01,86.852,0c3.647,0,5.86,1.658,6.877,5.13a1,1,0,0,0,.156.24Zm-3.155-7.314v-.988q0-27.761,0-55.522c0-2.511-1.3-3.792-3.849-3.793q-43.475,0-86.951,0c-2.6,0-3.849,1.264-3.849,3.889q0,27.662,0,55.325v1.089Zm-.017,3.273H425.832c0,.925-.011,1.778.005,2.631a4.6,4.6,0,0,0,.12,1.072c.439,1.667,1.71,2.518,3.744,2.518q43.46,0,86.92,0c.23,0,.46,0,.69-.011a3.313,3.313,0,0,0,3.14-3C520.531,253.151,520.466,252.1,520.466,250.983Zm-34.177,22.588a3.3,3.3,0,0,0-3.371-3.514q-9.759-.03-19.518,0a3.3,3.3,0,0,0-3.376,3.514Zm-17.533-6.764h8.771v-6.357h-8.771Z" transform="translate(0)" fill="#ac3df7"/>
    <path id="Path_113" data-name="Path 113" d="M607.913,281.148h2.135v-1.213q0-11.9,0-23.807c0-1.793.428-2.229,2.188-2.234,1.84-.005,3.68-.01,5.52,0,1.5.01,2.006.526,2.007,2.028q.005,12.348-.009,24.7a1.418,1.418,0,0,0,.718,1.435,4.665,4.665,0,0,1,2.174,4.087q.044,1.48,0,2.963c-.036,1.253-.6,1.817-1.828,1.818q-24.051.008-48.1,0c-1.3,0-1.841-.56-1.859-1.869-.011-.757.028-1.516-.008-2.272a5.088,5.088,0,0,1,3.569-5.464v-7.682c0-1.482,0-2.964,0-4.445,0-1.6.527-2.131,2.13-2.139q2.76-.015,5.52,0c1.555.01,2.079.526,2.083,2.077.011,3.622,0,7.244,0,10.866v1.138h2.121V279.96q0-9.73,0-19.46c0-1.808.456-2.256,2.285-2.258,1.807,0,3.614-.007,5.421,0,1.551.008,2.057.515,2.059,2.088q.009,9.779,0,19.559v1.244h2.111v-1.189q0-7.36,0-14.719c0-1.892.452-2.348,2.31-2.349,1.807,0,3.614-.008,5.421,0,1.46.008,2.018.571,2.02,2.049q.009,7.557,0,15.114Zm-33.9,6.551H619.4c.372-2.639-.2-3.333-2.69-3.333h-27.1q-6.8,0-13.6,0c-1.375,0-1.975.615-2,1.984C574.007,286.778,574.013,287.2,574.013,287.7Zm39.235-6.571h3.293V257.135h-3.293Zm-20.419.022V261.46H589.5v19.691Zm8.549-15.078v15.048h3.3V266.073Zm-20.449,15.071V270.276h-3.29v10.867Z" transform="translate(-109.141 -51.302)" fill="#ac3df7"/>
    <path id="Path_114" data-name="Path 114" d="M487.2,327.171c-.087.95-.152,1.9-.265,2.851-.149,1.246-.557,1.646-1.794,1.834-.195.03-.392.039-.588.059-1.306.132-1.371.252-.774,1.43.966,1.907.921,2.118-.724,3.479-.532.44-1.059.886-1.592,1.326-1.089.9-1.6.916-2.7.07-1.567-1.212-1.5-1.4-2.157.626-.439,1.358-.922,1.661-2.336,1.514-.914-.1-1.831-.176-2.743-.291-1.174-.148-1.534-.511-1.708-1.659-.307-2.026-.307-2.026-2.19-1.141a1.623,1.623,0,0,1-2.339-.5c-.62-.725-1.223-1.464-1.823-2.205-.837-1.032-.859-1.6-.058-2.626,1.3-1.664,1.361-1.549-.665-2.2-1.252-.4-1.555-.89-1.432-2.2.083-.884.17-1.769.244-2.654.114-1.366.466-1.749,1.846-1.976,1.885-.311,1.885-.311,1.032-2.043a1.689,1.689,0,0,1,.5-2.5c.724-.62,1.463-1.223,2.2-1.827a1.677,1.677,0,0,1,2.545-.042c1.579,1.182,1.579,1.182,2.23-.7a1.739,1.739,0,0,1,2.232-1.389c.913.1,1.829.185,2.744.282,1.223.129,1.669.569,1.819,1.785.241,1.963.241,1.963,2,1.09a1.743,1.743,0,0,1,2.579.533c.59.707,1.181,1.414,1.759,2.131a1.711,1.711,0,0,1,.012,2.633c-1.184,1.513-1.409,1.532.632,2.151C486.989,325.4,487.267,325.844,487.2,327.171ZM467.7,320.3c.085.174.183.377.284.579a3.4,3.4,0,0,1-2.551,4.979c-.321.055-.588.431-.88.658a6.875,6.875,0,0,0,.729.709c.561.409,1.426.649,1.677,1.188.728,1.56,1.272,3.238-.4,4.648-.036.031-.022.121-.027.156.3.789.77.759,1.393.374a2.026,2.026,0,0,1,2.034-.322c1.587.714,3,1.526,2.876,3.6,0,.046.076.1.1.124.693.252,1-.018,1.215-.686a3.374,3.374,0,0,1,5.2-1.655,1.293,1.293,0,0,0,1.044.227c.66-.276.232-.757.041-1.143a3.383,3.383,0,0,1,2.6-4.8c.414-.048.837,0,.9-.645.066-.669-.408-.642-.786-.772-.716-.246-1.42-.456-1.721-1.3-.565-1.59-1.095-3.146.5-4.485.044-.037.05-.119.091-.223l-.636-.694c-.17.078-.29.128-.406.186-2.506,1.249-4.741.093-5.231-2.673a.972.972,0,0,0-.553-.613c-.6-.21-.666.3-.8.708a3.33,3.33,0,0,1-5.248,1.635C468.522,319.567,468.122,319.6,467.7,320.3Z" transform="translate(-28.443 -95.857)" fill="#ac3df7"/>
    <path id="Path_115" data-name="Path 115" d="M506.532,232.647c2.977,0,5.8,0,8.616,0,1.9,0,2.4.588,2.1,2.476A11.443,11.443,0,1,1,503.775,221.9c2.051-.428,2.755.138,2.757,2.221C506.533,226.92,506.532,229.714,506.532,232.647Zm-3.155-7.314a8.266,8.266,0,0,0,2.742,16.117c3.545-.062,7.23-2.784,7.557-5.643-2.793,0-5.579.011-8.365,0-1.365-.008-1.906-.564-1.931-1.916-.011-.559,0-1.118,0-1.677C503.377,229.953,503.377,227.695,503.377,225.334Z" transform="translate(-52.95 -27.643)" fill="#ac3df7"/>
    <path id="Path_116" data-name="Path 116" d="M627.628,216.861c-.471-.039-.944-.068-1.414-.119a1.668,1.668,0,0,1-1.686-1.693,1.571,1.571,0,0,1,1.861-1.452q2.7.176,5.4.455a1.579,1.579,0,0,1,1.556,1.885q-.184,2.659-.47,5.31c-.126,1.152-.857,1.77-1.8,1.637-.9-.126-1.382-.849-1.314-1.979.025-.416.047-.833.083-1.457-.468.376-.793.624-1.1.891-2.773,2.373-5.557,4.733-8.306,7.133a2.036,2.036,0,0,1-2.43.361c-3.469-1.567-6.968-3.067-10.422-4.663a1.51,1.51,0,0,0-1.9.3c-3.445,2.953-6.929,5.86-10.4,8.782q-.226.19-.458.375c-.916.73-1.833.741-2.444.031-.66-.766-.51-1.642.457-2.471,1.273-1.091,2.562-2.164,3.845-3.243,2.768-2.328,5.549-4.64,8.3-6.992a1.976,1.976,0,0,1,2.343-.337c3.559,1.606,7.14,3.164,10.7,4.774a1.093,1.093,0,0,0,1.38-.185c2.525-2.207,5.084-4.375,7.632-6.555.221-.189.451-.367.677-.55Z" transform="translate(-124.709 -21.617)" fill="#ac3df7"/>
    <path id="Path_117" data-name="Path 117" d="M548.382,226.893c-1.379,0-2.758.011-4.137,0a1.594,1.594,0,0,1-1.818-1.813q-.021-4.146,0-8.291c.007-1.323.672-1.89,2.009-1.77a11.509,11.509,0,0,1,9.839,9.847c.121,1.383-.452,2.019-1.854,2.029C551.074,226.9,549.728,226.893,548.382,226.893Zm2.268-3.207c-.13-1.82-3.1-4.893-5.02-5.03v5.03Z" transform="translate(-88.203 -22.655)" fill="#ac3df7"/>
    <path id="Path_118" data-name="Path 118" d="M609.959,446.426a1.6,1.6,0,0,1-1.6-1.632,1.576,1.576,0,1,1,3.149-.052A1.6,1.6,0,0,1,609.959,446.426Z" transform="translate(-136.777 -190.7)" fill="#ac3df7"/>
    <path id="Path_119" data-name="Path 119" d="M500.188,347.683a5.678,5.678,0,0,1-5.644,5.761,5.722,5.722,0,1,1,5.644-5.761Zm-5.813,2.6a2.557,2.557,0,0,0,.2-5.111,2.61,2.61,0,0,0-2.629,2.513A2.584,2.584,0,0,0,494.375,350.28Z" transform="translate(-48.695 -116.206)" fill="#ac3df7"/>
  </g>
</svg>
