<svg xmlns="http://www.w3.org/2000/svg" width="250" height="250" viewBox="0 0 250 250">
  <g id="Group_115" data-name="Group 115" transform="translate(-1243 -308)">
    <rect id="Rectangle_121" data-name="Rectangle 121" width="250" height="250" rx="15" transform="translate(1243 308)" fill="#00023e"/>
    <g id="Group_114" data-name="Group 114" transform="translate(1134.801 323.099)">
      <path id="Path_1" data-name="Path 1" d="M19.093,66.665c-4.381-8.436-3.855-16.484-1.459-24.639C24.675,18.067,44.184,1.605,70.164.584c28.627-1.125,57.33-.278,86-.29,10.975,0,21.952-.051,32.927.023,2.266.015,4.673-.668,6.719.7.983,1.412.276,2.575-.292,3.682-6.795,13.25-15.5,24.93-27.509,33.992-11.265,8.5-23.633,12.937-37.97,12.7-24.517-.4-49.044-.11-73.566-.11-19.832,0-23.1,1.315-37.382,15.384" transform="translate(138.096 40)" fill="#0984ff"/>
      <path id="Path_2" data-name="Path 2" d="M108.2,81.735C96.91,127.586,45.966,158.219,0,146.8c3.3-45.72,61.179-80.526,108.2-65.061" transform="translate(140 30.607)" fill="#5300fb"/>
    </g>
  </g>
</svg>
